<?xml version="1.0" encoding="utf-8"?>
<!-- Generator: Adobe Illustrator 24.0.0, SVG Export Plug-In . SVG Version: 6.00 Build 0)  -->
<svg version="1.1" id="Layer_1" xmlns="http://www.w3.org/2000/svg" xmlns:xlink="http://www.w3.org/1999/xlink" x="0px" y="0px"
	 viewBox="0 0 500 500" style="enable-background:new 0 0 500 500;" xml:space="preserve">
<style type="text/css">
	.st0{fill:#FFFFFF;}
</style>
<g>
	<path class="st0" d="M249.93,44.14C136.72,44.13,44.6,135.99,44.49,248.99c-0.11,113.5,91.67,205.93,204.52,205.99
		c114.5,0.05,206.31-91.58,206.33-205.95C455.35,136.13,363.13,44.14,249.93,44.14z M234.36,373.92c-0.29,4.47,0.04,9.02-1.45,13.44
		c-2.41,7.15-8.07,11.36-15.61,11.28c-2.38-0.03-3.86-1.06-4.63-3.31c-0.91-2.68-1.24-5.45-1.51-8.23
		c-0.56-5.86-0.98-11.77-0.47-17.62c0.46-5.37,0.43-10.72,0.28-16.06c-0.2-7.49-0.74-14.97-1.61-22.44
		c-1.31-11.22-3.37-22.28-6.87-32.99c-3.58-10.98-8.86-21.13-16.2-30.17c-7.07-8.71-15.53-15.62-25.54-20.61
		c-7.09-3.53-14.63-5.58-22.52-6.54c-5.1-0.63-10.18-0.93-14.83-0.82c-9.56-0.19-18.54,0.74-27.4,2.81
		c-0.36,0.09-0.72,0.16-1.08,0.21c-1.03,0.13-1.77-0.32-2.05-1.28c-0.27-0.95,0.56-1.24,1.22-1.55c4.6-2.14,9.31-4.02,14.18-5.48
		c8.53-2.56,17.15-4.38,26.1-4.98c12.21-0.82,24.04,0.56,35.55,4.54c7.52,2.59,14.17,6.8,20.41,11.71
		c10.66,8.38,18.26,19.1,24.46,31.02c6.19,11.94,10.27,24.53,13.11,37.62c1.66,7.64,2.86,15.33,3.96,23.05
		c0.83,5.84,1.35,11.68,1.77,17.56C234.08,361.36,234.76,367.65,234.36,373.92z M238.45,282.97c0.01,1.1-0.28,1.82-1.37,2.16
		c-1.08,0.34-1.55-0.35-1.98-1.12c-2.12-3.79-4.28-7.55-6.36-11.36c-5.13-9.37-10.54-18.58-16.25-27.6
		c-5.06-7.99-10.49-15.75-16.27-23.23c-4.36-5.63-8.99-11.06-13.87-16.29c-3.65-3.93-7.32-7.83-11.22-11.49
		c-7.94-7.47-16.34-14.4-25.05-20.96c-7.24-5.46-14.8-10.38-22.54-15.06c-0.74-0.44-1.75-0.94-1.49-1.96
		c0.26-0.97,1.36-1.01,2.24-1.07c2.2-0.15,4.4-0.23,6.04-0.31c8.36,0.12,15.87,1.72,23.33,3.87c13.84,3.99,25.92,11.18,37.26,19.84
		c4.95,3.79,9.59,7.91,13.77,12.51c7.41,8.17,14.03,16.96,19.48,26.58c4.64,8.17,8.67,16.62,11.24,25.7
		c1.63,5.78,3.12,11.58,3.04,17.67C238.35,268.22,238.41,275.6,238.45,282.97z M248.73,244.27c-0.65-4.73-1.29-9.47-1.94-14.21
		c-0.77-5.65-1.65-11.29-2.71-16.89c-1.48-7.86-3.21-15.67-4.75-23.52c-1.67-8.55-3.63-17.04-5.87-25.44
		c-2.86-10.76-5.95-21.47-9.61-32.01c-2.79-8.01-5.52-16.04-8.24-24.07c-0.4-1.18-0.66-2.41-0.92-3.63
		c-0.14-0.66-0.13-1.39,0.51-1.81c0.77-0.49,1.21,0.23,1.68,0.64c4.54,3.89,8.58,8.26,12.43,12.82
		c9.23,10.98,17.25,22.77,23.99,35.44c6.73,12.65,11.87,25.92,15.01,39.91c1.43,6.35,2.25,12.81,2.9,19.3
		c0.38,3.82,0.13,7.61,0.3,10.05c0.26,10.12-0.87,18.71-2.46,27.34c-1.82,9.81-4.96,19.07-9.43,27.93
		c-0.79,1.57-1.81,2.96-3.09,4.19c-0.72,0.69-1.48,1.4-2.48,0.99c-0.99-0.41-1.35-1.5-1.45-2.47c-0.5-4.91-0.8-9.85-1.39-14.75
		C250.41,257.47,249.63,250.87,248.73,244.27z M336.69,333.7c-1.61,0.4-2-2.01-2.58-3.31c-5.56-12.48-11.61-24.73-17.89-36.87
		c-2.42-4.67-4.69-9.48-8.07-13.55c-2.09-2.52-4.05-5.39-7.68-6.18c-1.43-0.3-2.43-0.05-3.49,0.91c-2.88,2.57-4.12,6.06-5.54,9.47
		c-3.2,7.71-4.5,15.92-6.15,24.02c-1.32,6.51-2.56,13.05-3.48,19.62c-0.72,5.17-1.44,10.34-1.94,15.54
		c-0.55,5.73-1.07,11.45-1.29,17.21c-0.24,6.11-0.73,12.22-1.32,18.31c-0.42,4.44-1.13,8.85-1.79,13.27c-0.43,2.82-2,4.27-4.85,4.6
		c-5.41,0.61-9.92-1.08-13.12-5.57c-3.01-4.24-4.56-9-5.01-14.22c-0.21-2.48-0.33-4.95-0.41-7.43c0.19-7.06,1.04-14.03,2.16-21.01
		c2.08-12.83,5.31-25.38,9.13-37.76c2.84-9.22,6.45-18.19,10.47-26.98c3.89-8.49,8.1-16.79,13.61-24.37
		c2.18-2.98,4.24-6.09,7.42-8.18c3.44-2.26,5.71-2.21,9.16,0.1c6.21,4.17,10.34,10.09,13.93,16.46
		c7.32,12.98,12.04,26.97,15.57,41.37c1.64,6.71,3.13,13.48,3.88,20.38C337.58,331.08,338.67,333.21,336.69,333.7z M387.12,157.67
		c-0.31,0.48-0.77,0.3-1.18,0.17c-2.93-0.91-5.34,0.27-7.61,1.91c-2.52,1.82-4.58,4.15-6.79,6.3c-6.01,5.85-11.98,11.75-17.5,18.07
		c-5.26,6.01-10.35,12.16-15.13,18.56c-2.21,2.97-4.65,5.78-7.15,8.51c-3.52,3.83-7.03,7.7-10.84,11.24
		c-7.33,6.82-14.77,13.54-23.81,18.12c-3.95,2-9.39,3.27-13.82,3.27c-1.52-0.05-3.06,0.19-4.53-0.45c-1.59-0.7-2.32-2.21-1.39-3.66
		c2.64-4.13,5.33-8.25,8.17-12.25c5.12-7.19,10.37-14.28,15.55-21.43c4.37-6.04,8.93-11.93,13.71-17.66
		c5.53-6.63,11.16-13.17,17.44-19.08c7.48-7.05,15.31-13.73,24.34-18.78c5.65-3.16,11.61-5.11,18.19-3.47
		c5.48,1.37,9.29,4.88,12.09,9.63C387.04,156.97,387.37,157.28,387.12,157.67z"/>
</g>
</svg>
