<?xml version="1.0" standalone="no"?>
<!DOCTYPE svg PUBLIC "-//W3C//DTD SVG 20010904//EN"
 "http://www.w3.org/TR/2001/REC-SVG-20010904/DTD/svg10.dtd">
<svg version="1.0" xmlns="http://www.w3.org/2000/svg"
 width="500.000000pt" height="500.000000pt" viewBox="0 0 500.000000 500.000000"
 preserveAspectRatio="xMidYMid meet">
<metadata>
Created by potrace 1.16, written by Peter Selinger 2001-2019
</metadata>
<g transform="translate(0.000000,500.000000) scale(0.100000,-0.100000)"
fill="#ffffff" stroke="none">
<path d="M2050 4200 l0 -250 -375 0 -375 0 0 -375 0 -375 -286 0 c-198 0 -299
-4 -328 -12 -52 -16 -108 -72 -124 -124 -9 -30 -12 -181 -12 -568 0 -597 -3
-569 80 -648 l50 -46 0 -546 c0 -469 2 -552 15 -583 20 -48 41 -70 90 -97 l40
-21 1675 0 c1617 0 1676 1 1710 19 47 25 69 45 89 81 14 27 17 95 21 590 l5
560 52 50 c35 35 55 63 62 92 8 30 11 204 9 575 l-3 533 -25 43 c-15 27 -42
54 -70 70 l-45 27 -302 3 -303 3 0 625 0 624 -825 0 -825 0 0 -250z m1414 88
c-4 -7 -120 -164 -258 -348 l-251 -335 -3 173 -2 172 -174 0 c-151 0 -176 2
-194 18 -11 9 -81 88 -156 175 l-137 157 591 0 c470 0 590 -3 584 -12z m-1160
-227 c47 -54 86 -101 86 -105 0 -3 -43 -6 -95 -6 l-95 0 0 111 c0 61 4 108 9
105 5 -3 47 -50 95 -105z m1244 -1252 l-3 -453 -292 391 c-323 430 -324 432
-303 544 14 73 41 122 132 241 43 56 165 218 271 359 l192 256 3 -443 c1 -243
1 -646 0 -895z m-834 979 c-38 -63 -539 -717 -544 -711 -221 255 -581 667
-603 691 l-31 32 593 0 c471 0 591 -3 585 -12z m-904 -518 c337 -386 365 -425
364 -520 0 -93 -18 -121 -236 -370 l-47 -53 -220 -5 -221 -5 0 679 0 679 24
-25 c14 -14 165 -185 336 -380z m990 -285 l0 -665 -157 0 c-87 0 -168 3 -181
6 -13 4 -57 51 -106 115 l-83 108 23 68 c30 88 31 182 3 264 -11 34 -19 67
-17 74 3 11 509 694 516 695 1 0 2 -299 2 -665z m-1500 -45 l0 -109 -122 -3
-123 -3 -3 -322 -2 -323 1450 0 1450 0 0 320 0 320 -125 0 -125 0 0 115 0 115
288 0 c211 0 291 -3 300 -12 9 -9 12 -141 12 -534 0 -462 -2 -524 -16 -538
-14 -14 -189 -16 -1780 -16 -1198 0 -1772 3 -1785 10 -18 10 -19 27 -19 538 0
397 3 531 12 540 9 9 89 12 300 12 l288 0 0 -110z m1869 -327 l211 -283 -215
0 -215 0 0 287 c0 157 2 284 4 282 1 -2 98 -131 215 -286z m-1869 -108 l0
-175 -50 0 -50 0 0 175 0 175 50 0 50 0 0 -175z m2498 -2 l2 -173 -50 0 -50 0
0 168 c0 93 2 171 5 173 2 3 24 5 47 4 l43 0 3 -172z m382 -1231 c0 -461 -2
-530 -16 -550 -14 -20 -23 -22 -115 -22 l-99 0 0 435 0 435 -1450 0 -1450 0 0
-435 0 -435 -94 0 c-148 0 -136 -53 -136 576 l0 524 1680 0 1680 0 0 -528z
m-380 -207 l0 -365 -1300 0 -1300 0 0 360 0 360 1297 3 c714 1 1299 3 1301 5
1 1 2 -162 2 -363z"/>
<path d="M1282 1063 l3 -278 1215 0 1215 0 3 278 2 277 -1220 0 -1220 0 2
-277z"/>
</g>
</svg>
