<?xml version="1.0" standalone="no"?>
<!DOCTYPE svg PUBLIC "-//W3C//DTD SVG 20010904//EN"
 "http://www.w3.org/TR/2001/REC-SVG-20010904/DTD/svg10.dtd">
<svg version="1.0" xmlns="http://www.w3.org/2000/svg"
 width="374.000000pt" height="374.000000pt" viewBox="0 0 374.000000 374.000000"
 preserveAspectRatio="xMidYMid meet">
<metadata>
Created by potrace 1.16, written by Peter Selinger 2001-2019
</metadata>
<g transform="translate(0.000000,374.000000) scale(0.100000,-0.100000)"
fill="#ffffff" stroke="none">
<path d="M969 3381 c-45 -14 -72 -32 -158 -105 -190 -159 -289 -255 -310 -299
l-21 -44 2 -1215 3 -1215 30 -48 c21 -35 45 -56 80 -74 l49 -26 746 -3 c524
-2 760 0 797 8 69 15 125 57 153 115 21 44 23 65 28 261 l5 214 361 0 c221 0
376 4 399 11 51 14 104 63 117 107 8 25 10 222 8 597 l-3 560 -23 33 c-36 50
-89 72 -172 72 l-70 0 0 83 c-1 127 -28 183 -105 218 -35 16 -68 19 -277 19
l-236 0 -4 288 c-3 276 -4 289 -26 330 -29 54 -89 98 -153 111 -58 13 -1179
14 -1220 2z m1245 -106 c55 -37 56 -46 56 -515 l0 -430 -654 0 c-437 0 -664
-4 -683 -11 -44 -16 -90 -67 -102 -112 -9 -30 -11 -199 -9 -588 l3 -545 27
-41 c54 -81 19 -78 761 -81 l657 -3 0 -203 c0 -195 -1 -204 -23 -237 -12 -18
-34 -39 -47 -46 -19 -10 -196 -13 -780 -13 -740 0 -756 0 -788 20 -65 40 -62
-28 -62 1254 l0 1164 168 4 c192 3 218 12 252 83 17 35 20 62 20 183 l0 143
588 -3 c563 -3 588 -4 616 -23z m-1315 -271 c-9 -11 -42 -14 -140 -14 l-128 0
137 131 137 131 3 -117 c2 -78 -1 -122 -9 -131z m1965 -473 c24 -23 26 -31 26
-108 l0 -83 -260 0 -260 0 0 111 0 110 234 -3 c232 -3 235 -3 260 -27z m278
-319 l23 -23 3 -517 c2 -284 0 -532 -3 -550 -3 -17 -16 -41 -27 -52 -21 -20
-36 -20 -1095 -20 l-1074 0 -24 25 -25 24 0 544 c0 572 -1 560 45 586 14 7
325 10 1087 8 l1067 -2 23 -23z"/>
<path d="M1282 3054 c-27 -18 -29 -55 -4 -77 17 -15 61 -17 424 -17 380 0 406
1 421 18 22 25 21 48 -3 72 -19 19 -33 20 -418 20 -344 0 -401 -2 -420 -16z"/>
<path d="M734 2785 c-15 -23 -15 -27 0 -50 l16 -25 680 0 c604 0 680 2 694 16
20 20 20 48 0 68 -14 14 -90 16 -694 16 l-680 0 -16 -25z"/>
<path d="M740 2540 c-24 -24 -25 -39 -6 -66 14 -18 34 -19 685 -22 455 -2 678
1 691 8 29 15 36 57 15 80 -18 19 -35 20 -692 20 -660 0 -673 0 -693 -20z"/>
<path d="M965 2176 c-14 -20 -15 -88 -13 -544 2 -343 7 -525 13 -531 16 -16
2132 -16 2151 0 12 10 14 98 14 543 0 400 -3 535 -12 544 -9 9 -262 12 -1075
12 l-1063 0 -15 -24z m1155 -151 c0 -31 5 -37 48 -59 26 -13 60 -38 77 -55
l29 -32 -51 -51 -52 -51 -35 31 c-55 48 -127 57 -150 19 -15 -24 8 -40 93 -68
127 -40 182 -95 189 -187 6 -90 -35 -158 -118 -192 -25 -10 -30 -18 -30 -46
l0 -34 -70 0 -70 0 0 29 c0 27 -7 33 -62 60 -35 16 -75 43 -91 59 l-28 29 43
51 c23 29 45 52 49 52 4 0 21 -11 37 -25 53 -44 123 -58 177 -33 54 24 24 64
-74 96 -88 30 -145 65 -171 107 -18 30 -22 47 -18 99 5 76 34 122 97 151 36
16 41 22 41 52 l0 33 70 0 70 0 0 -35z"/>
</g>
</svg>
