<?xml version="1.0" standalone="no"?>
<!DOCTYPE svg PUBLIC "-//W3C//DTD SVG 20010904//EN"
 "http://www.w3.org/TR/2001/REC-SVG-20010904/DTD/svg10.dtd">
<svg version="1.0" xmlns="http://www.w3.org/2000/svg"
 width="500.000000pt" height="500.000000pt" viewBox="0 0 500.000000 500.000000"
 preserveAspectRatio="xMidYMid meet">

<g transform="translate(0.000000,500.000000) scale(0.100000,-0.100000)"
fill="#ffffff" stroke="none">
<path d="M1860 4630 c-617 -87 -1003 -681 -839 -1290 58 -215 213 -432 399
-557 341 -230 806 -230 1150 -1 320 213 494 629 425 1019 -56 324 -281 614
-582 751 -151 68 -385 101 -553 78z m298 -256 c154 -32 271 -96 384 -211 117
-120 184 -253 214 -424 39 -225 -31 -455 -190 -626 -295 -317 -716 -349 -1065
-80 -113 88 -212 244 -251 401 -23 90 -27 245 -9 342 53 290 294 535 589 598
89 19 235 19 328 0z"/>
<path d="M1730 2424 c-400 -47 -698 -197 -986 -496 -260 -271 -400 -599 -436
-1024 -14 -163 -6 -212 39 -242 25 -16 109 -17 1263 -22 l1237 -5 54 -43 c30
-24 79 -63 109 -88 77 -62 257 -149 360 -174 287 -68 613 -12 854 148 246 163
409 417 456 714 18 109 8 321 -18 423 -107 410 -420 704 -829 781 -123 23
-356 15 -468 -16 -162 -44 -294 -113 -424 -222 l-54 -45 -81 52 c-174 113
-367 194 -561 235 -76 16 -145 22 -290 25 -104 2 -206 1 -225 -1z m2090 -278
c155 -42 304 -128 402 -234 317 -343 300 -823 -40 -1144 -192 -181 -464 -258
-715 -202 -144 32 -311 128 -413 235 -149 160 -224 346 -224 562 0 447 385
820 830 803 58 -3 130 -11 160 -20z"/>
<path d="M4030 1679 c-27 -16 -314 -246 -421 -336 -14 -12 -26 -3 -95 77 -44
49 -94 97 -113 106 -98 47 -202 -55 -162 -158 14 -36 239 -297 274 -319 47
-28 88 -24 143 14 84 56 533 427 546 450 6 12 12 44 12 70 0 40 -5 53 -31 78
-41 42 -103 49 -153 18z"/>
</g>
</svg>
