<?xml version="1.0" standalone="no"?>
<!DOCTYPE svg PUBLIC "-//W3C//DTD SVG 20010904//EN"
 "http://www.w3.org/TR/2001/REC-SVG-20010904/DTD/svg10.dtd">
<svg version="1.0" xmlns="http://www.w3.org/2000/svg"
 width="383.000000pt" height="383.000000pt" viewBox="0 0 383.000000 383.000000"
 preserveAspectRatio="xMidYMid meet">
<metadata>
Created by potrace 1.16, written by Peter Selinger 2001-2019
</metadata>
<g transform="translate(0.000000,383.000000) scale(0.100000,-0.100000)"
fill="#ffffff" stroke="none">
<path d="M785 3756 c-113 -36 -230 -125 -278 -213 -60 -111 -57 -31 -57 -1634
0 -1412 1 -1470 19 -1528 47 -153 178 -275 332 -310 64 -15 2151 -15 2221 0
171 36 315 187 347 363 15 81 15 2445 1 2498 -16 56 -695 800 -751 822 -35 14
-137 16 -917 15 -680 0 -886 -3 -917 -13z m1747 -501 c3 -364 3 -364 26 -387
22 -23 25 -23 347 -26 l325 -3 -1 -1077 c0 -837 -3 -1073 -12 -1058 -29 47
-75 91 -112 107 -33 15 -68 19 -200 19 l-160 1 53 24 c80 37 125 77 163 147
30 56 33 71 34 143 0 61 -5 91 -21 126 -99 215 -388 248 -531 61 -121 -159
-58 -385 131 -473 l61 -28 -47 -1 -47 0 32 -62 32 -61 3 -249 3 -248 -80 0
-80 0 -3 238 -3 239 -28 41 c-15 23 -46 54 -69 69 -39 26 -50 28 -172 33
l-131 5 41 22 c60 32 139 123 163 188 29 76 28 185 -1 262 -30 81 -121 171
-203 202 -83 31 -206 27 -285 -10 -141 -66 -229 -232 -201 -381 20 -111 91
-211 183 -260 l43 -23 -130 -5 c-96 -4 -138 -10 -161 -22 -47 -26 -100 -93
-113 -143 -6 -25 -11 -133 -11 -249 l0 -206 -80 0 -80 0 0 213 c0 225 10 296
51 365 10 18 19 35 19 37 0 2 -19 5 -42 7 l-43 3 63 29 c126 58 188 163 180
305 -10 169 -132 283 -302 283 -97 0 -161 -28 -225 -98 -58 -64 -81 -124 -81
-213 0 -123 68 -223 190 -280 l55 -26 -165 -5 c-158 -5 -167 -6 -212 -33 -28
-16 -57 -44 -73 -70 l-25 -42 3 1360 2 1360 27 51 c34 65 108 130 167 148 38
12 192 15 888 15 l842 1 3 -365z m374 -5 c109 -124 205 -233 213 -243 13 -16
0 -17 -208 -17 l-221 0 0 252 c0 139 4 248 8 243 5 -6 98 -111 208 -235z
m-916 -2657 l0 -223 -80 0 -80 0 0 223 0 223 80 0 80 -1 0 -222z"/>
<path d="M934 3106 c-94 -41 -101 -177 -10 -220 30 -14 100 -16 636 -16 536 0
606 2 636 16 92 44 84 180 -12 220 -48 20 -1204 20 -1250 0z"/>
<path d="M913 2600 c-41 -25 -53 -48 -53 -105 0 -40 5 -52 34 -81 l34 -34 987
0 987 0 34 34 c29 29 34 41 34 83 0 28 -7 58 -16 71 -38 54 6 52 -1041 52
-941 0 -969 -1 -1000 -20z"/>
<path d="M922 2113 c-40 -20 -62 -59 -62 -113 0 -32 7 -48 34 -78 l34 -37 972
-3 c1067 -3 1016 -5 1053 57 22 37 22 95 0 132 -37 62 12 59 -1040 59 -864 0
-961 -2 -991 -17z"/>
</g>
</svg>
