<?xml version="1.0" standalone="no"?>
<!DOCTYPE svg PUBLIC "-//W3C//DTD SVG 20010904//EN"
 "http://www.w3.org/TR/2001/REC-SVG-20010904/DTD/svg10.dtd">
<svg version="1.0" xmlns="http://www.w3.org/2000/svg"
 width="500.000000pt" height="500.000000pt" viewBox="0 0 500.000000 500.000000"
 preserveAspectRatio="xMidYMid meet">

<g transform="translate(0.000000,500.000000) scale(0.100000,-0.100000)"
fill="#ffffff" stroke="none">
<path d="M1680 4539 c-153 -10 -420 -50 -591 -89 -157 -36 -370 -97 -382 -109
-7 -7 1 -17 22 -28 275 -152 433 -266 582 -421 154 -158 248 -309 309 -490 42
-127 54 -231 46 -398 l-6 -141 113 -17 c126 -19 237 -46 313 -75 41 -16 55
-17 66 -8 19 16 58 72 58 85 0 16 -96 49 -250 87 -91 22 -150 41 -157 52 -8
11 -13 51 -13 109 0 195 -38 354 -130 539 -108 218 -271 402 -503 567 -82 59
-96 73 -81 79 54 21 327 0 471 -36 333 -85 551 -282 632 -574 11 -40 28 -82
37 -92 9 -10 74 -37 145 -59 461 -145 760 -443 906 -904 45 -142 64 -165 155
-191 135 -37 268 -114 349 -201 80 -87 125 -159 182 -294 65 -153 84 -270 103
-640 l7 -135 33 70 c70 152 146 407 178 595 58 349 36 719 -64 1053 -93 310
-258 620 -483 905 -7 9 39 61 175 200 218 221 238 245 238 281 0 33 -37 71
-69 71 -41 0 -75 -28 -236 -190 -88 -89 -177 -175 -197 -191 l-37 -30 -143
117 c-216 178 -358 264 -569 348 -337 134 -743 186 -1209 155z"/>
<path d="M1822 2128 c-572 -572 -969 -976 -992 -1011 -52 -77 -65 -123 -64
-232 2 -246 163 -394 428 -398 89 -1 97 0 169 36 111 55 157 120 126 176 -28
50 -58 49 -144 -2 -113 -67 -185 -73 -285 -22 -92 47 -136 123 -128 224 9 114
-62 38 1315 1421 348 350 637 648 642 663 19 50 -19 96 -79 97 -33 0 -85 -50
-988 -952z"/>
<path d="M2670 2479 c-127 -38 -183 -197 -104 -297 102 -127 295 -98 339 52
17 58 12 104 -19 159 -37 69 -138 109 -216 86z"/>
<path d="M3455 2181 c-51 -23 -92 -71 -101 -117 -23 -125 60 -222 182 -212 93
8 156 76 156 168 0 75 -40 134 -114 165 -48 19 -74 19 -123 -4z"/>
<path d="M2540 1991 c-72 -22 -138 -79 -164 -143 -9 -21 -16 -66 -16 -100 0
-71 29 -531 35 -564 4 -15 15 -24 38 -28 l34 -6 7 -203 c3 -111 9 -268 13
-349 l6 -148 228 0 c125 0 230 4 233 8 3 5 8 158 12 341 6 271 10 335 22 345
46 37 62 58 62 82 0 15 9 145 21 289 22 282 21 310 -24 376 -29 43 -93 88
-143 99 -47 11 -328 11 -364 1z"/>
<path d="M1950 1752 c-99 -52 -99 -206 0 -257 126 -65 267 72 201 195 -39 74
-126 101 -201 62z"/>
<path d="M3347 1746 c-56 -16 -106 -62 -133 -120 -23 -49 -24 -60 -24 -274 0
-256 5 -282 64 -303 24 -9 35 -18 32 -29 -11 -39 -88 -551 -84 -555 3 -3 144
-4 315 -3 l309 3 -38 289 c-21 159 -37 291 -35 293 3 2 24 7 48 11 l44 8 3
248 c1 153 -2 263 -8 287 -15 53 -71 114 -123 133 -55 19 -317 28 -370 12z"/>
<path d="M1866 1386 c-51 -19 -92 -60 -112 -113 -15 -39 -16 -57 -5 -161 7
-64 16 -153 21 -197 7 -71 12 -82 39 -107 l31 -28 0 -165 0 -165 169 0 168 0
6 67 c4 38 7 93 7 123 1 74 14 127 39 154 16 17 24 53 41 180 29 220 30 293 3
337 -12 19 -41 46 -65 59 -38 22 -57 25 -173 27 -94 2 -141 -1 -169 -11z"/>
</g>
</svg>
