<?xml version="1.0" standalone="no"?>
<!DOCTYPE svg PUBLIC "-//W3C//DTD SVG 20010904//EN"
 "http://www.w3.org/TR/2001/REC-SVG-20010904/DTD/svg10.dtd">
<svg version="1.0" xmlns="http://www.w3.org/2000/svg"
 width="500.000000pt" height="500.000000pt" viewBox="0 0 500.000000 500.000000"
 preserveAspectRatio="xMidYMid meet">

<g transform="translate(0.000000,500.000000) scale(0.100000,-0.100000)"
fill="#ffffff" stroke="none">
<path d="M564 4700 c-156 -21 -243 -113 -265 -279 -7 -48 -9 -233 -7 -482 4
-388 5 -406 26 -459 30 -76 73 -124 140 -157 l57 -28 744 -3 c810 -3 799 -4
886 53 52 34 89 87 109 157 15 49 16 115 14 519 l-3 464 -28 57 c-33 67 -80
110 -157 141 -55 22 -57 22 -755 23 -385 1 -728 -2 -761 -6z"/>
<path d="M2994 4701 c-80 -10 -145 -42 -193 -97 -81 -92 -75 -19 -79 -1109 -2
-633 1 -997 7 -1049 13 -96 50 -168 109 -213 86 -65 69 -64 898 -61 l749 3 48
24 c67 33 133 110 155 180 16 52 17 133 17 1066 l0 1010 -24 59 c-31 76 -91
136 -167 167 l-59 24 -700 1 c-385 1 -727 -1 -761 -5z m1477 -220 l24 -19 0
-1026 c0 -971 -1 -1026 -18 -1043 -17 -17 -63 -18 -758 -21 l-740 -2 -24 24
-25 25 0 1017 0 1018 22 23 21 23 738 0 c711 0 738 -1 760 -19z"/>
<path d="M547 2830 c-111 -19 -199 -93 -233 -197 -18 -55 -19 -104 -19 -1068
l0 -1010 24 -59 c32 -79 99 -146 177 -176 l59 -23 730 2 c846 2 804 -2 894 89
98 98 91 13 91 1176 0 1118 3 1072 -63 1158 -41 53 -113 93 -193 107 -72 13
-1392 13 -1467 1z m1495 -218 l23 -23 0 -1024 c0 -970 -1 -1025 -18 -1042 -17
-17 -61 -18 -763 -18 l-746 0 -19 24 c-18 23 -19 54 -19 1032 0 749 3 1015 12
1034 6 14 23 28 37 31 14 3 31 7 36 9 6 2 331 3 722 2 l712 -2 23 -23z"/>
<path d="M2917 1693 c-70 -24 -141 -91 -169 -161 -23 -57 -23 -60 -23 -527 l0
-470 29 -63 c35 -75 87 -123 162 -152 52 -19 81 -20 792 -20 664 -1 743 1 788
16 94 32 169 107 196 198 9 30 13 165 13 496 0 429 -1 458 -20 508 -27 72 -74
125 -143 159 l-57 28 -760 2 c-678 2 -765 0 -808 -14z"/>
</g>
</svg>
