<?xml version="1.0" standalone="no"?>
<!DOCTYPE svg PUBLIC "-//W3C//DTD SVG 20010904//EN"
 "http://www.w3.org/TR/2001/REC-SVG-20010904/DTD/svg10.dtd">
<svg version="1.0" xmlns="http://www.w3.org/2000/svg"
 width="374.000000pt" height="374.000000pt" viewBox="0 0 374.000000 374.000000"
 preserveAspectRatio="xMidYMid meet">
<metadata>
Created by potrace 1.16, written by Peter Selinger 2001-2019
</metadata>
<g transform="translate(0.000000,374.000000) scale(0.100000,-0.100000)"
fill="#ffffff" stroke="none">
<path d="M1700 3336 c-206 -37 -377 -110 -516 -220 -143 -113 -231 -234 -340
-465 l-74 -156 0 -240 c1 -174 5 -250 14 -278 22 -61 65 -107 125 -135 51 -24
69 -27 213 -30 l157 -4 40 -48 c23 -27 73 -72 112 -101 l70 -53 -113 -36
c-411 -133 -719 -440 -848 -847 -26 -81 -31 -111 -26 -147 9 -59 55 -126 108
-156 l43 -25 1165 -3 c812 -2 1180 0 1216 8 95 20 164 104 164 199 0 100 -80
302 -181 456 -71 109 -251 288 -362 359 -108 71 -225 126 -339 161 -49 14 -88
28 -88 30 0 1 22 17 49 35 28 17 79 63 115 101 l66 69 129 0 c72 0 153 5 181
11 69 15 129 62 163 129 l28 55 -3 255 -3 255 -39 80 c-21 44 -51 107 -67 140
-132 281 -401 503 -704 581 -123 32 -337 41 -455 20z m320 -111 c261 -39 485
-172 634 -375 27 -36 59 -86 72 -112 l24 -48 -144 0 -144 0 -32 38 c-98 112
-256 206 -403 237 -115 25 -275 17 -382 -19 -113 -38 -208 -98 -294 -183 l-73
-73 -139 0 c-77 0 -139 2 -139 5 0 3 13 32 29 63 118 233 395 422 686 468 109
17 193 17 305 -1z m-6 -385 c116 -29 190 -73 281 -165 137 -137 192 -283 182
-483 -6 -113 -19 -146 -63 -162 -14 -6 -105 -10 -203 -10 -194 0 -203 -3 -203
-57 0 -47 21 -53 194 -53 95 0 158 -4 158 -10 0 -5 -33 -42 -72 -82 -78 -79
-155 -125 -253 -154 -82 -24 -240 -24 -320 0 -374 112 -556 512 -388 855 53
107 170 224 276 275 137 66 273 82 411 46z"/>
</g>
</svg>
