<?xml version="1.0" standalone="no"?>
<!DOCTYPE svg PUBLIC "-//W3C//DTD SVG 20010904//EN"
 "http://www.w3.org/TR/2001/REC-SVG-20010904/DTD/svg10.dtd">
<svg version="1.0" xmlns="http://www.w3.org/2000/svg"
 width="374.000000pt" height="374.000000pt" viewBox="0 0 374.000000 374.000000"
 preserveAspectRatio="xMidYMid meet">
<metadata>
Created by potrace 1.16, written by Peter Selinger 2001-2019
</metadata>
<g transform="translate(0.000000,374.000000) scale(0.100000,-0.100000)"
fill="#ffffff" stroke="none">
<path d="M1323 3411 c-38 -24 -60 -56 -69 -98 l-6 -32 -317 -3 -316 -3 -55
-31 c-38 -22 -64 -46 -85 -79 l-30 -48 -3 -1305 c-1 -899 1 -1316 8 -1344 14
-51 74 -116 130 -141 44 -19 67 -20 1295 -18 1174 2 1252 3 1290 20 52 23 111
89 125 140 7 27 9 442 8 1343 l-3 1305 -30 49 c-22 35 -46 57 -85 79 l-55 30
-317 3 -316 3 -6 34 c-14 70 -73 115 -155 115 -39 0 -56 -6 -81 -26 -35 -30
-60 -73 -60 -104 0 -20 -4 -20 -320 -20 -316 0 -320 0 -320 20 0 28 -23 70
-54 99 -37 35 -127 41 -173 12z m-73 -343 c0 -119 14 -159 69 -195 39 -26 102
-31 120 -9 16 19 10 67 -9 76 -8 5 -27 13 -42 19 -28 11 -28 11 -28 111 l0
100 415 0 415 0 0 -105 c0 -117 9 -146 60 -189 23 -19 43 -26 75 -26 49 0 68
17 63 56 -3 27 -9 33 -60 53 -28 11 -28 11 -28 111 l0 100 390 0 c527 0 493
17 498 -256 l3 -184 -1321 0 -1321 0 3 184 c4 268 -15 255 401 256 l297 0 0
-102z m1940 -1174 c0 -400 -4 -622 -10 -634 -21 -39 -49 -44 -261 -50 -205 -5
-206 -5 -248 -33 -29 -20 -50 -44 -67 -80 -22 -49 -24 -63 -24 -234 0 -120 -4
-191 -12 -208 -26 -57 12 -55 -988 -55 -999 0 -963 -2 -1008 55 l-22 28 0 913
0 914 1320 0 1320 0 0 -616z m-90 -792 c0 -4 -92 -99 -205 -212 l-205 -205 0
172 c0 105 4 182 11 196 21 47 49 53 267 55 72 1 132 -1 132 -6z"/>
<path d="M768 2315 c-40 -22 -51 -72 -47 -214 4 -120 5 -123 32 -147 27 -23
34 -24 173 -24 139 0 146 1 169 24 30 30 39 89 33 218 -5 91 -7 102 -32 126
-26 26 -30 27 -164 29 -107 2 -143 0 -164 -12z"/>
<path d="M1398 2314 c-39 -21 -51 -75 -46 -217 3 -116 4 -119 31 -143 27 -23
34 -24 172 -24 138 0 145 1 172 24 27 24 28 27 31 143 5 152 -7 199 -53 219
-48 20 -270 19 -307 -2z"/>
<path d="M2033 2315 c-45 -19 -56 -69 -51 -219 4 -115 5 -120 32 -142 26 -23
34 -24 171 -24 138 0 145 1 172 24 27 24 28 27 31 143 5 145 -7 197 -48 218
-39 20 -261 20 -307 0z"/>
<path d="M2663 2315 c-43 -18 -48 -41 -48 -204 1 -133 1 -133 28 -157 27 -23
35 -24 176 -24 146 0 148 0 172 26 22 24 24 35 28 146 4 144 -7 191 -49 213
-39 20 -261 20 -307 0z"/>
<path d="M839 1753 c-56 -3 -70 -8 -90 -29 -22 -24 -24 -35 -27 -147 -6 -216
8 -231 219 -225 125 3 129 4 156 31 28 27 28 28 28 165 0 191 -4 197 -150 204
-38 2 -100 2 -136 1z"/>
<path d="M1474 1752 c-61 -2 -75 -6 -95 -28 -23 -24 -24 -32 -24 -157 0 -73 3
-144 8 -159 12 -46 51 -58 187 -58 150 0 184 11 199 67 12 41 13 233 2 272
-15 55 -85 71 -277 63z"/>
<path d="M2098 1751 c-106 -9 -112 -19 -113 -183 0 -164 5 -185 50 -204 47
-19 253 -19 300 0 46 20 58 67 53 218 -3 110 -5 119 -28 142 -21 20 -37 24
-110 28 -47 2 -115 2 -152 -1z"/>
<path d="M2663 1730 c-34 -14 -46 -48 -51 -151 -6 -126 3 -185 33 -215 23 -23
30 -24 165 -24 82 0 150 5 162 11 35 19 48 70 48 189 0 126 -14 174 -55 190
-32 12 -272 12 -302 0z"/>
<path d="M772 1170 c-42 -17 -54 -70 -50 -213 3 -127 3 -129 31 -153 27 -23
34 -24 173 -24 139 0 146 1 169 24 29 29 40 105 32 225 -7 104 -11 118 -48
136 -32 17 -268 20 -307 5z"/>
<path d="M1400 1167 c-36 -18 -49 -67 -49 -190 -1 -116 12 -167 47 -186 12 -6
79 -11 159 -11 157 0 176 6 193 68 13 48 13 216 -1 264 -16 58 -44 68 -196 68
-83 0 -137 -5 -153 -13z"/>
<path d="M2028 1165 c-44 -24 -63 -120 -32 -163 30 -43 84 -12 84 50 l0 28
105 0 105 0 0 -105 0 -105 -105 0 c-95 0 -105 2 -115 21 -9 15 -19 19 -43 17
-29 -3 -32 -6 -35 -40 -3 -29 2 -43 22 -63 24 -24 29 -25 168 -25 163 0 180 6
198 68 13 48 13 216 -1 264 -16 58 -44 68 -196 68 -93 -1 -135 -5 -155 -15z"/>
</g>
</svg>
