<?xml version="1.0" encoding="utf-8"?>
<!-- Generator: Adobe Illustrator 24.0.0, SVG Export Plug-In . SVG Version: 6.00 Build 0)  -->
<svg version="1.1" id="Layer_1" xmlns="http://www.w3.org/2000/svg" xmlns:xlink="http://www.w3.org/1999/xlink" x="0px" y="0px"
	 viewBox="0 0 500 500" style="enable-background:new 0 0 1000 1000;" xml:space="preserve">
<g>
	<path d="M109.33,319.19c4.69,0.06,9.38,0.01,14.06,0.01c4.69,0,9.38,0.04,14.06-0.01c7.6-0.07,12.72-4.62,12.91-12.1
		c0.26-9.78,0.24-19.58,0.01-29.37c-0.17-7.11-4.95-12-12.06-12.19c-9.92-0.27-19.86-0.29-29.78,0.01
		c-6.98,0.21-11.63,5.04-11.77,11.93c-0.2,9.92-0.2,19.86,0,29.78C96.93,314.56,101.91,319.1,109.33,319.19z"/>
	<path d="M307.11,265.55c-9.92-0.31-19.85-0.27-29.77-0.02c-6.71,0.17-11.57,4.52-11.81,10.97c-0.39,10.6-0.39,21.23,0.01,31.82
		c0.25,6.5,5.31,10.71,11.85,10.85c4.96,0.1,9.93,0.02,14.89,0.02c4.69,0,9.38,0.05,14.06-0.01c7.54-0.09,12.47-4.78,12.61-12.35
		c0.17-9.65,0.17-19.3-0.01-28.95C318.81,270.71,314.23,265.77,307.11,265.55z"/>
	<path d="M193.11,319.18c4.82,0.1,9.65,0.02,14.48,0.02c4.69,0,9.38,0.03,14.06,0c7.88-0.07,12.86-4.61,13.03-12.38
		c0.21-9.65,0.21-19.3,0-28.95c-0.16-7.19-4.8-12.09-11.91-12.31c-9.92-0.3-19.86-0.28-29.77-0.01c-6.87,0.19-11.65,4.76-11.83,11.4
		c-0.29,10.33-0.29,20.68,0.01,31.01C181.37,314.62,186.39,319.04,193.11,319.18z"/>
	<path d="M109.71,242.49c4.54,0.11,9.1,0.02,13.65,0.01c4.82,0,9.65,0.12,14.47-0.03c7.6-0.24,12.42-4.91,12.58-12.49
		c0.2-9.5,0.19-19.02,0.01-28.53c-0.14-7.63-4.82-12.43-12.44-12.62c-9.64-0.23-19.3-0.24-28.95,0c-7.67,0.2-12.18,4.97-12.29,12.68
		c-0.13,9.37-0.12,18.74,0,28.12C96.84,237.71,101.54,242.3,109.71,242.49z"/>
	<path d="M181.04,230.05c0.28,7.65,4.9,12.29,12.57,12.42c9.52,0.17,19.03,0.17,28.54-0.01c7.61-0.14,12.39-4.87,12.54-12.49
		c0.2-9.5,0.19-19.02,0.01-28.53c-0.14-7.68-4.75-12.42-12.42-12.61c-9.64-0.23-19.3-0.24-28.95,0c-7.67,0.2-12.07,4.91-12.31,12.69
		c-0.14,4.68-0.02,9.37-0.02,14.06C181,220.4,180.86,225.23,181.04,230.05z"/>
	<path d="M361.67,242.43c9.78,0.21,19.57,0.22,29.35,0.01c7.58-0.15,12.1-5.02,12.25-12.72c0.1-4.68,0.02-9.37,0.02-14.06v-13.65
		c0-0.28,0-0.55-0.01-0.83c-0.28-7.23-4.58-12.07-11.8-12.29c-10.06-0.3-20.14-0.29-30.18,0.02c-6.68,0.2-11.3,4.56-11.54,11.22
		c-0.4,10.32-0.4,20.68-0.01,31C350.01,237.93,354.82,242.27,361.67,242.43z"/>
	<path d="M362.09,321.06c4.82,0.16,9.65,0.03,14.47,0.03c4.69,0,9.38,0.12,14.06-0.02c7.86-0.23,12.54-4.94,12.63-12.78
		c0.11-9.37,0.11-18.75,0-28.12c-0.09-7.7-4.57-12.53-12.23-12.73c-9.78-0.26-19.58-0.26-29.36,0.02
		c-7.22,0.2-11.84,4.83-12.05,12.11c-0.28,9.78-0.29,19.58,0,29.36C349.85,316.37,354.65,320.82,362.09,321.06z"/>
	<path d="M277.71,242.45c9.65,0.19,19.3,0.2,28.95,0c7.57-0.17,12.12-4.98,12.31-12.68c0.12-4.69,0.02-9.37,0.02-14.06
		c0-4.83,0.12-9.66-0.03-14.48c-0.23-7.44-4.7-12.19-12.17-12.39c-9.78-0.25-19.57-0.25-29.35,0.01
		c-7.26,0.19-11.87,4.76-12.08,12.04c-0.29,9.78-0.28,19.58-0.01,29.35C265.54,237.71,270.31,242.3,277.71,242.45z"/>
	<path d="M109.17,396.02c4.68,0.09,9.36,0.02,14.04,0.02c4.82,0,9.63,0.06,14.45-0.01c7.42-0.11,12.56-4.87,12.73-12.32
		c0.23-9.77,0.24-19.54-0.02-29.31c-0.19-7.25-5.27-12.01-12.51-12.09c-9.63-0.11-19.27-0.13-28.9,0.01
		c-7.1,0.1-12.03,4.83-12.18,11.88c-0.21,9.9-0.21,19.82-0.02,29.72C96.91,391.16,101.91,395.88,109.17,396.02z"/>
	<path d="M193.85,396.02c9.36,0.07,18.71,0.07,28.07,0c7.49-0.06,12.57-4.79,12.75-12.27c0.23-9.76,0.24-19.54-0.01-29.31
		c-0.19-7.46-5.26-12.05-12.84-12.17c-4.54-0.07-9.08-0.01-13.62-0.01c-4.82,0-9.63-0.07-14.45,0.02
		c-7.59,0.13-12.51,4.7-12.69,12.26c-0.22,9.76-0.23,19.54,0.01,29.31C181.25,391.36,186.27,395.97,193.85,396.02z"/>
	<path d="M265.29,362.84c0.43,3.97,2.81,6.25,6.41,6.13c3.42-0.11,5.63-2.34,5.87-6.19c0.16-2.58,0.03-5.17,0.03-7.78
		c9.96,0,19.36,0,28.88,0c0,9.55,0,18.78,0,28.62c-9.22,0-18.02,0.06-26.81-0.09c-0.85-0.01-1.97-1.1-2.45-1.98
		c-1.7-3.08-4.2-4.48-7.54-3.48c-3.38,1.01-4.6,3.64-4.24,7.11c0.65,6.29,5.65,10.77,12.45,10.83c9.24,0.08,18.48,0.05,27.71,0.01
		c8.48-0.04,13.3-4.79,13.38-13.34c0.09-9.1,0.1-18.2-0.01-27.3c-0.1-8.29-4.92-13.04-13.18-13.11c-7.31-0.06-14.63,0.32-21.92-0.08
		c-17.41-0.96-19.31,7.01-18.63,19.81C265.26,362.29,265.26,362.56,265.29,362.84z"/>
	<path d="M441.62,96.27c0-21.29-13.31-34.55-34.73-34.59h-73.96c0.02-0.21,0.03-0.43,0.03-0.65c0-11.18-9.09-20.27-20.27-20.27
		c-11.18,0-20.27,9.09-20.27,20.27v0.65h-84.91c0.02-0.21,0.03-0.43,0.03-0.65c0-11.18-9.09-20.27-20.27-20.27
		c-11.18,0-20.27,9.09-20.27,20.27v0.65h-50.68c-2.25,0-4.52-0.02-6.8-0.04c-2.31-0.02-4.64-0.04-6.97-0.04
		c-2.61,0-4.9,0.03-6.99,0.09c-0.98,0.02-1.96,0.06-2.94,0.1c-4.71,0.23-9.68,0.68-14.06,2.47c-12.3,5.01-19.07,14.36-20.1,27.81
		c-0.1,1.41-0.1,2.84-0.1,4.21v1.82c-0.01,107.03-0.02,217.7,0.06,326.55c0.01,4.88,0.56,8.97,1.66,12.52
		c4.03,12.94,15.94,21.78,29.63,21.99c4.3,0.06,8.95,0.1,14.65,0.1c3.35,0,6.71-0.01,10.06-0.02c3.35-0.01,6.7-0.02,10.04-0.02
		c94.43,0,188.86,0,283.29-0.01c16.9,0,29.58-9.68,33.07-25.27c0.7-3.13,0.76-6.43,0.76-9.28
		C441.64,306.25,441.64,198.84,441.62,96.27z M72.99,197.46l0-30.02c0-0.57,0.05-1.17,0.11-1.93c0.01-0.15,0.03-0.31,0.04-0.48
		l33.04,0c9.84,0,19.69,0,29.53-0.01l0.91,0c0.92,0,1.88-0.02,2.84-0.14h23.97c1.18,0.12,2.34,0.14,3.37,0.14l1.53,0
		c84.53,0.01,169.04,0.01,253.56,0.01h5.12l0,54.79c0,34.01,0,68.02,0,102.03c-0.01,11.06-4.74,15.79-15.82,15.79
		c0,0-9.99,0-13.54-0.01c-3.55-0.01-7.09-0.01-10.64-0.01c-4.21,0-8.43,0.01-12.64,0.03c-17.88,0.1-29.45,11.72-29.48,29.59
		c-0.01,6.28-0.01,12.55-0.01,18.82c0,6.28,0.01,12.55-0.01,18.82c-0.01,9.72-5.07,14.86-14.64,14.87
		c-32.87,0-65.74,0.01-98.61,0.01c-46.55,0-93.09-0.01-139.64-0.02c-11.7,0-18.97-7.12-18.97-18.59
		C72.97,333.25,72.98,264.22,72.99,197.46z M359.53,397.54c-0.05-10.96-0.1-22.3,0.15-33.57c0.14-6.5,5.6-11.5,12.7-11.63
		c4.25-0.07,8.76-0.1,14.63-0.1c2.67,0,5.34,0.01,8.01,0.01c2.67,0.01,5.34,0.01,8.01,0.01l6.34-0.01l5.83,0
		c-8.97,8.96-46.18,46.17-55.62,55.61C359.56,404.47,359.55,401.02,359.53,397.54z M306.97,61.03c0-3.16,2.57-5.73,5.73-5.73
		c3.16,0,5.73,2.57,5.73,5.73c0,0.22,0.01,0.43,0.03,0.65h-11.48V61.03z M181.56,61.03c0-3.16,2.57-5.73,5.73-5.73
		c3.16,0,5.73,2.57,5.73,5.73c0,0.22,0.01,0.43,0.03,0.65h-11.48V61.03z M73,96.07c0.02-12.9,6.92-19.74,19.96-19.77l1.44-0.01
		h72.63v23.12c0,11.18,9.09,20.27,20.27,20.27c4.01,0,7.27-3.26,7.27-7.27c0-4.01-3.26-7.27-7.27-7.27c-3.16,0-5.73-2.57-5.73-5.73
		V76.29h110.87v23.12c0,11.18,9.09,20.27,20.27,20.27c4.01,0,7.27-3.26,7.27-7.27c0-4.01-3.26-7.27-7.27-7.27
		c-3.16,0-5.73-2.57-5.73-5.73V76.29h81.48c6.33,0,12.66,0.01,18.99,0.02c4.27,0.01,7.94,0.83,10.92,2.44
		c5.63,3.05,8.62,8.89,8.65,16.9c0.04,12.89,0.03,25.99,0.01,38.66l0,0.86H72.98C72.97,122.86,72.97,109.41,73,96.07z"/>
</g>
</svg>
