<svg version="1.1" id="Layer_1" xmlns="http://www.w3.org/2000/svg" xmlns:xlink="http://www.w3.org/1999/xlink" x="0px" y="0px"
	 width="100%" viewBox="0 0 374 374" enable-background="new 0 0 374 374" xml:space="preserve">
<path fill="#ffffff" opacity="1.000000" stroke="none" 
	d="
M375.000000,138.000000 
	C375.000000,217.333313 375.000000,296.166626 375.000000,374.999939 
	C250.333389,374.999969 125.666786,374.999969 1.000137,375.000000 
	C1.000091,250.333435 1.000091,125.666862 1.000046,1.000220 
	C125.666534,1.000147 250.333069,1.000147 374.999817,1.000073 
	C375.000000,46.500000 375.000000,92.000000 375.000000,138.000000 
M55.312019,125.484718 
	C55.207554,126.637650 55.011883,127.790565 55.011700,128.943512 
	C55.002602,185.733551 55.008732,242.523590 55.027203,299.313629 
	C55.027580,300.466797 55.193211,301.619904 55.281746,302.773041 
	C55.505619,302.760040 55.729492,302.747040 55.953365,302.734039 
	C55.953365,243.469604 55.953365,184.205170 56.900581,124.986206 
	C72.711807,124.986206 88.523033,124.986206 104.334251,124.986206 
	C88.558449,124.095940 72.787544,124.090294 57.016766,124.134613 
	C56.686340,124.135536 56.357533,124.713997 55.312019,125.484718 
M44.035900,258.936737 
	C44.035900,280.161346 44.035900,301.385956 44.035900,322.610596 
	C44.300022,322.610443 44.564148,322.610291 44.828270,322.610168 
	C44.828270,301.076538 44.828270,279.542938 44.982044,257.082092 
	C44.982044,194.530167 44.982044,131.978226 44.982044,69.426292 
	C44.654984,69.419991 44.327919,69.413689 44.000858,69.407387 
	C44.000858,71.010376 44.000896,72.613358 44.000854,74.216339 
	C43.999538,124.496559 43.988037,174.776779 44.004883,225.057007 
	C44.008564,236.041122 44.113453,247.025208 44.035900,258.936737 
M331.983429,260.079010 
	C331.983429,196.861160 331.983429,133.643311 331.983429,70.425468 
	C331.655182,70.420021 331.326935,70.414574 330.998688,70.409126 
	C330.998688,71.843674 330.998688,73.278214 330.998688,74.712753 
	C330.998840,126.492142 330.989929,178.271530 331.006775,230.050919 
	C331.010132,240.369324 331.111877,250.687714 331.030548,261.933685 
	C331.030548,282.143707 331.030548,302.353760 331.030548,322.563782 
	C331.297607,322.563599 331.564667,322.563416 331.831726,322.563232 
	C331.831726,302.044220 331.831726,281.525177 331.983429,260.079010 
M320.003601,125.890755 
	C320.003601,164.687698 320.003601,203.484634 320.003601,242.281570 
	C320.781982,241.545425 320.985046,240.781815 320.985352,240.018097 
	C321.001556,202.852585 321.009918,165.687073 320.956604,128.521637 
	C320.954926,127.347115 320.297546,126.173523 319.574982,124.221397 
	C318.582123,124.149101 317.589294,124.013718 316.596436,124.013519 
	C253.285706,124.000771 189.974991,123.997589 126.664261,124.009079 
	C125.661102,124.009262 124.657982,124.201675 123.654846,124.304382 
	C123.668129,124.517693 123.681419,124.731003 123.694710,124.944313 
	C189.137741,124.944313 254.580780,124.944313 320.003601,125.890755 
M292.500000,102.000305 
	C214.440750,102.000305 136.381485,102.000305 58.322227,102.000305 
	C58.323063,102.238747 58.323895,102.477180 58.324726,102.715622 
	C144.842392,102.715622 231.360046,102.715622 317.877686,102.715622 
	C317.879852,102.477180 317.882019,102.238747 317.884186,102.000305 
	C309.756104,102.000305 301.628052,102.000305 292.500000,102.000305 
M68.830696,345.026154 
	C148.631790,345.026154 228.432892,345.026154 308.233978,345.026154 
	C308.233124,344.776123 308.232269,344.526093 308.231415,344.276062 
	C227.335068,344.276062 146.438705,344.276062 65.542351,344.276062 
	C65.536461,344.472809 65.530563,344.669525 65.524666,344.866272 
	C66.322121,344.926697 67.119576,344.987091 68.830696,345.026154 
M76.554398,314.997314 
	C134.109390,314.997314 191.664383,314.997314 249.219376,314.997314 
	C249.218491,314.750061 249.217606,314.502838 249.216736,314.255585 
	C188.373444,314.255585 127.530159,314.255585 66.686874,314.255585 
	C66.685135,314.502838 66.683395,314.750061 66.681656,314.997314 
	C69.647247,314.997314 72.612839,314.997314 76.554398,314.997314 
M183.500000,59.000881 
	C195.110168,59.000881 206.720337,59.000881 218.330505,59.000881 
	C218.326233,58.774181 218.321960,58.547485 218.317688,58.320786 
	C191.104477,58.320786 163.891266,58.320786 136.678070,58.320786 
	C136.677887,58.547485 136.677704,58.774181 136.677521,59.000881 
	C151.951675,59.000881 167.225845,59.000881 183.500000,59.000881 
M107.498734,59.000881 
	C113.261406,59.000881 119.024078,59.000881 125.217850,59.000881 
	C125.217850,65.175903 125.217850,70.776176 125.217850,76.376457 
	C125.368713,76.363670 125.519577,76.350883 125.670441,76.338097 
	C125.670441,70.284897 125.670441,64.231689 125.670441,58.263268 
	C105.763306,58.263268 86.190514,58.263268 66.617729,58.263268 
	C66.617149,58.509140 66.616562,58.755009 66.615982,59.000881 
	C79.910439,59.000881 93.204903,59.000881 107.498734,59.000881 
M286.499695,57.999119 
	C267.867432,57.999119 249.235184,57.999119 230.602936,57.999119 
	C230.605392,58.234009 230.607849,58.468899 230.610306,58.703789 
	C255.854706,58.703789 281.099091,58.703789 306.343506,58.703789 
	C306.344971,58.468899 306.346436,58.234009 306.347900,57.999119 
	C300.065063,57.999119 293.782227,57.999119 286.499695,57.999119 
M160.048401,46.999916 
	C159.121292,47.109947 158.194199,47.219975 157.267090,47.330006 
	C157.282562,47.480179 157.298035,47.630352 157.313507,47.780525 
	C177.833008,47.780525 198.352509,47.780525 218.872009,47.780525 
	C218.873489,47.520298 218.874969,47.260075 218.876450,46.999847 
	C199.559250,46.999847 180.242035,46.999847 160.048401,46.999916 
M80.552361,47.027134 
	C77.416039,47.027134 74.279716,47.027134 71.143394,47.027134 
	C71.150215,47.244411 71.157028,47.461685 71.163849,47.678963 
	C89.037750,47.678963 106.911644,47.678963 124.785545,47.678963 
	C124.785301,47.460403 124.785057,47.241844 124.784813,47.023285 
	C110.368782,47.023285 95.952744,47.023285 80.552361,47.027134 
M296.418213,46.999847 
	C281.352753,46.999847 266.287292,46.999847 251.221832,46.999847 
	C251.225662,47.222713 251.229477,47.445583 251.233307,47.668449 
	C269.077271,47.668449 286.921234,47.668449 304.765167,47.668449 
	C304.765442,47.445583 304.765717,47.222713 304.765991,46.999847 
	C302.304901,46.999847 299.843811,46.999847 296.418213,46.999847 
M279.895996,252.956970 
	C279.112366,253.091049 278.328735,253.225113 277.545105,253.359192 
	C277.570709,253.472916 277.596344,253.586655 277.621948,253.700378 
	C288.434906,253.700378 299.247864,253.700378 310.060852,253.700378 
	C310.059875,253.461456 310.058899,253.222519 310.057922,252.983597 
	C300.311462,252.983597 290.565002,252.983597 279.895996,252.956970 
M298.465424,265.006348 
	C302.564514,265.006348 306.663635,265.006348 310.762726,265.006348 
	C310.763245,264.802338 310.763733,264.598358 310.764221,264.394348 
	C300.107880,264.394348 289.451538,264.394348 278.795197,264.394348 
	C278.789459,264.598663 278.783722,264.802948 278.777985,265.007263 
	C285.011261,265.007263 291.244568,265.007263 298.465424,265.006348 
M319.979279,97.174057 
	C320.045593,98.548576 320.111908,99.923096 320.178223,101.297623 
	C320.357635,101.288162 320.537018,101.278709 320.716431,101.269257 
	C320.716431,90.958878 320.716431,80.648506 320.716431,70.338127 
	C320.470398,70.337341 320.224396,70.336548 319.978363,70.335762 
	C319.978363,78.972633 319.978363,87.609512 319.979279,97.174057 
M55.001385,75.880882 
	C55.001385,84.301414 55.001385,92.721947 55.001385,101.142471 
	C55.220875,101.135834 55.440369,101.129189 55.659859,101.122543 
	C55.659859,91.433647 55.659859,81.744751 55.659859,72.055855 
	C55.441071,72.057434 55.222279,72.059021 55.003490,72.060600 
	C55.003490,73.038246 55.003490,74.015892 55.001385,75.880882 
M259.001251,280.709473 
	C259.001251,278.974976 259.001251,277.240509 259.001251,275.506012 
	C258.758972,275.509247 258.516693,275.512451 258.274414,275.515656 
	C258.274414,285.149323 258.274414,294.783020 258.274414,304.416718 
	C258.516663,304.419037 258.758881,304.421356 259.001129,304.423676 
	C259.001129,296.836212 259.001129,289.248749 259.001251,280.709473 
M102.073151,239.984100 
	C103.157951,239.898788 104.242744,239.813477 105.327545,239.728165 
	C105.319252,239.596771 105.310959,239.465378 105.302666,239.333984 
	C97.186195,239.333984 89.069733,239.333984 80.953270,239.333984 
	C80.953888,239.549774 80.954506,239.765564 80.955132,239.981354 
	C87.691605,239.981354 94.428070,239.981354 102.073151,239.984100 
M269.010803,284.937927 
	C269.010803,291.515594 269.010803,298.093231 269.010803,304.670898 
	C269.241516,304.662811 269.472260,304.654694 269.702972,304.646576 
	C269.702972,296.826843 269.702972,289.007080 269.702972,281.187317 
	C269.516998,281.180634 269.331024,281.173920 269.145050,281.167206 
	C269.101959,282.137848 269.058868,283.108459 269.010803,284.937927 
M235.744888,180.832626 
	C235.584808,180.885239 235.424728,180.937851 235.264648,180.990463 
	C235.425568,181.042114 235.586502,181.093765 235.744888,180.832626 
M201.272400,178.823471 
	C201.381622,178.974106 201.490860,179.124741 201.600082,179.275375 
	C201.578583,179.066895 201.557098,178.858429 201.272400,178.823471 
M137.268814,177.821045 
	C137.379883,177.973755 137.490967,178.126450 137.602036,178.279160 
	C137.579926,178.067612 137.557816,177.856079 137.268814,177.821045 
z"/>
<path fill="#1B1B1B" opacity="1.000000" stroke="none" 
	d="
M293.000000,102.000305 
	C301.628052,102.000305 309.756104,102.000305 317.884186,102.000305 
	C317.882019,102.238747 317.879852,102.477180 317.877686,102.715622 
	C231.360046,102.715622 144.842392,102.715622 58.324726,102.715622 
	C58.323895,102.477180 58.323063,102.238747 58.322227,102.000305 
	C136.381485,102.000305 214.440750,102.000305 293.000000,102.000305 
z"/>
<path fill="#818181" opacity="1.000000" stroke="none" 
	d="
M68.373863,345.036835 
	C67.119576,344.987091 66.322121,344.926697 65.524666,344.866272 
	C65.530563,344.669525 65.536461,344.472809 65.542351,344.276062 
	C146.438705,344.276062 227.335068,344.276062 308.231415,344.276062 
	C308.232269,344.526093 308.233124,344.776123 308.233978,345.026154 
	C228.432892,345.026154 148.631790,345.026154 68.373863,345.036835 
z"/>
<path fill="#8F8F8F" opacity="1.000000" stroke="none" 
	d="
M320.023804,124.944313 
	C254.580780,124.944313 189.137741,124.944313 123.694710,124.944313 
	C123.681419,124.731003 123.668129,124.517693 123.654846,124.304382 
	C124.657982,124.201675 125.661102,124.009262 126.664261,124.009079 
	C189.974991,123.997589 253.285706,124.000771 316.596436,124.013519 
	C317.589294,124.013718 318.582123,124.149101 319.792969,124.615158 
	C320.010956,125.008919 320.023804,124.944313 320.023804,124.944313 
z"/>
<path fill="#AAAAAA" opacity="1.000000" stroke="none" 
	d="
M331.168274,261.006104 
	C331.111877,250.687714 331.010132,240.369324 331.006775,230.050919 
	C330.989929,178.271530 330.998840,126.492142 330.998688,74.712753 
	C330.998688,73.278214 330.998688,71.843674 330.998688,70.409126 
	C331.326935,70.414574 331.655182,70.420021 331.983429,70.425468 
	C331.983429,133.643311 331.983429,196.861160 331.741699,260.542114 
	C331.500000,261.005249 331.168274,261.006104 331.168274,261.006104 
z"/>
<path fill="#A7A7A7" opacity="1.000000" stroke="none" 
	d="
M44.171730,258.009308 
	C44.113453,247.025208 44.008564,236.041122 44.004883,225.057007 
	C43.988037,174.776779 43.999538,124.496559 44.000854,74.216339 
	C44.000896,72.613358 44.000858,71.010376 44.000858,69.407387 
	C44.327919,69.413689 44.654984,69.419991 44.982044,69.426292 
	C44.982044,131.978226 44.982044,194.530167 44.741020,257.545319 
	C44.500000,258.008545 44.171730,258.009308 44.171730,258.009308 
z"/>
<path fill="#F8F8F8" opacity="1.000000" stroke="none" 
	d="
M76.066414,314.997314 
	C72.612839,314.997314 69.647247,314.997314 66.681656,314.997314 
	C66.683395,314.750061 66.685135,314.502838 66.686874,314.255585 
	C127.530159,314.255585 188.373444,314.255585 249.216736,314.255585 
	C249.217606,314.502838 249.218491,314.750061 249.219376,314.997314 
	C191.664383,314.997314 134.109390,314.997314 76.066414,314.997314 
z"/>
<path fill="#666666" opacity="1.000000" stroke="none" 
	d="
M55.953365,124.940720 
	C55.953365,184.205170 55.953365,243.469604 55.953365,302.734039 
	C55.729492,302.747040 55.505619,302.760040 55.281746,302.773041 
	C55.193211,301.619904 55.027580,300.466797 55.027203,299.313629 
	C55.008732,242.523590 55.002602,185.733551 55.011700,128.943512 
	C55.011883,127.790565 55.207554,126.637650 55.638065,125.245331 
	C55.964111,125.005951 55.953365,124.940720 55.953365,124.940720 
z"/>
<path fill="#666666" opacity="1.000000" stroke="none" 
	d="
M319.978394,125.004211 
	C320.297546,126.173523 320.954926,127.347115 320.956604,128.521637 
	C321.009918,165.687073 321.001556,202.852585 320.985352,240.018097 
	C320.985046,240.781815 320.781982,241.545425 320.003601,242.281570 
	C320.003601,203.484634 320.003601,164.687698 320.013702,125.417534 
	C320.023804,124.944313 320.010956,125.008919 319.978394,125.004211 
z"/>
<path fill="#EEEEEE" opacity="1.000000" stroke="none" 
	d="
M183.000000,59.000881 
	C167.225845,59.000881 151.951675,59.000881 136.677521,59.000881 
	C136.677704,58.774181 136.677887,58.547485 136.678070,58.320786 
	C163.891266,58.320786 191.104477,58.320786 218.317688,58.320786 
	C218.321960,58.547485 218.326233,58.774181 218.330505,59.000881 
	C206.720337,59.000881 195.110168,59.000881 183.000000,59.000881 
z"/>
<path fill="#EEEEEE" opacity="1.000000" stroke="none" 
	d="
M106.999046,59.000881 
	C93.204903,59.000881 79.910439,59.000881 66.615982,59.000881 
	C66.616562,58.755009 66.617149,58.509140 66.617729,58.263268 
	C86.190514,58.263268 105.763306,58.263268 125.670441,58.263268 
	C125.670441,64.231689 125.670441,70.284897 125.670441,76.338097 
	C125.519577,76.350883 125.368713,76.363670 125.217850,76.376457 
	C125.217850,70.776176 125.217850,65.175903 125.217850,59.000881 
	C119.024078,59.000881 113.261406,59.000881 106.999046,59.000881 
z"/>
<path fill="#EEEEEE" opacity="1.000000" stroke="none" 
	d="
M286.999542,57.999119 
	C293.782227,57.999119 300.065063,57.999119 306.347900,57.999119 
	C306.346436,58.234009 306.344971,58.468899 306.343506,58.703789 
	C281.099091,58.703789 255.854706,58.703789 230.610306,58.703789 
	C230.607849,58.468899 230.605392,58.234009 230.602936,57.999119 
	C249.235184,57.999119 267.867432,57.999119 286.999542,57.999119 
z"/>
<path fill="#B0B0B0" opacity="1.000000" stroke="none" 
	d="
M44.103813,258.473022 
	C44.171730,258.009308 44.500000,258.008545 44.664135,258.008942 
	C44.828270,279.542938 44.828270,301.076538 44.828270,322.610168 
	C44.564148,322.610291 44.300022,322.610443 44.035900,322.610596 
	C44.035900,301.385956 44.035900,280.161346 44.103813,258.473022 
z"/>
<path fill="#222222" opacity="1.000000" stroke="none" 
	d="
M160.486603,46.999882 
	C180.242035,46.999847 199.559250,46.999847 218.876450,46.999847 
	C218.874969,47.260075 218.873489,47.520298 218.872009,47.780525 
	C198.352509,47.780525 177.833008,47.780525 157.313507,47.780525 
	C157.298035,47.630352 157.282562,47.480179 157.267090,47.330006 
	C158.194199,47.219975 159.121292,47.109947 160.486603,46.999882 
z"/>
<path fill="#B0B0B0" opacity="1.000000" stroke="none" 
	d="
M331.099426,261.469910 
	C331.168274,261.006104 331.500000,261.005249 331.665863,261.005707 
	C331.831726,281.525177 331.831726,302.044220 331.831726,322.563232 
	C331.564667,322.563416 331.297607,322.563599 331.030548,322.563782 
	C331.030548,302.353760 331.030548,282.143707 331.099426,261.469910 
z"/>
<path fill="#222222" opacity="1.000000" stroke="none" 
	d="
M81.044540,47.025208 
	C95.952744,47.023285 110.368782,47.023285 124.784813,47.023285 
	C124.785057,47.241844 124.785301,47.460403 124.785545,47.678963 
	C106.911644,47.678963 89.037750,47.678963 71.163849,47.678963 
	C71.157028,47.461685 71.150215,47.244411 71.143394,47.027134 
	C74.279716,47.027134 77.416039,47.027134 81.044540,47.025208 
z"/>
<path fill="#222222" opacity="1.000000" stroke="none" 
	d="
M296.900452,46.999847 
	C299.843811,46.999847 302.304901,46.999847 304.765991,46.999847 
	C304.765717,47.222713 304.765442,47.445583 304.765167,47.668449 
	C286.921234,47.668449 269.077271,47.668449 251.233307,47.668449 
	C251.229477,47.445583 251.225662,47.222713 251.221832,46.999847 
	C266.287292,46.999847 281.352753,46.999847 296.900452,46.999847 
z"/>
<path fill="#8F8F8F" opacity="1.000000" stroke="none" 
	d="
M55.996040,125.014496 
	C56.357533,124.713997 56.686340,124.135536 57.016766,124.134613 
	C72.787544,124.090294 88.558449,124.095940 104.334251,124.986206 
	C88.523033,124.986206 72.711807,124.986206 56.426971,124.963463 
	C55.953365,124.940720 55.964111,125.005951 55.996040,125.014496 
z"/>
<path fill="#8F8F8F" opacity="1.000000" stroke="none" 
	d="
M280.357269,252.970276 
	C290.565002,252.983597 300.311462,252.983597 310.057922,252.983597 
	C310.058899,253.222519 310.059875,253.461456 310.060852,253.700378 
	C299.247864,253.700378 288.434906,253.700378 277.621948,253.700378 
	C277.596344,253.586655 277.570709,253.472916 277.545105,253.359192 
	C278.328735,253.225113 279.112366,253.091049 280.357269,252.970276 
z"/>
<path fill="#818181" opacity="1.000000" stroke="none" 
	d="
M297.971619,265.006805 
	C291.244568,265.007263 285.011261,265.007263 278.777985,265.007263 
	C278.783722,264.802948 278.789459,264.598663 278.795197,264.394348 
	C289.451538,264.394348 300.107880,264.394348 310.764221,264.394348 
	C310.763733,264.598358 310.763245,264.802338 310.762726,265.006348 
	C306.663635,265.006348 302.564514,265.006348 297.971619,265.006805 
z"/>
<path fill="#666666" opacity="1.000000" stroke="none" 
	d="
M319.978821,96.710220 
	C319.978363,87.609512 319.978363,78.972633 319.978363,70.335762 
	C320.224396,70.336548 320.470398,70.337341 320.716431,70.338127 
	C320.716431,80.648506 320.716431,90.958878 320.716431,101.269257 
	C320.537018,101.278709 320.357635,101.288162 320.178223,101.297623 
	C320.111908,99.923096 320.045593,98.548576 319.978821,96.710220 
z"/>
<path fill="#666666" opacity="1.000000" stroke="none" 
	d="
M55.002438,75.437210 
	C55.003490,74.015892 55.003490,73.038246 55.003490,72.060600 
	C55.222279,72.059021 55.441071,72.057434 55.659859,72.055855 
	C55.659859,81.744751 55.659859,91.433647 55.659859,101.122543 
	C55.440369,101.129189 55.220875,101.135834 55.001385,101.142471 
	C55.001385,92.721947 55.001385,84.301414 55.002438,75.437210 
z"/>
<path fill="#F8F8F8" opacity="1.000000" stroke="none" 
	d="
M259.001190,281.185364 
	C259.001129,289.248749 259.001129,296.836212 259.001129,304.423676 
	C258.758881,304.421356 258.516663,304.419037 258.274414,304.416718 
	C258.274414,294.783020 258.274414,285.149323 258.274414,275.515656 
	C258.516693,275.512451 258.758972,275.509247 259.001251,275.506012 
	C259.001251,277.240509 259.001251,278.974976 259.001190,281.185364 
z"/>
<path fill="#404040" opacity="1.000000" stroke="none" 
	d="
M101.618851,239.982727 
	C94.428070,239.981354 87.691605,239.981354 80.955132,239.981354 
	C80.954506,239.765564 80.953888,239.549774 80.953270,239.333984 
	C89.069733,239.333984 97.186195,239.333984 105.302666,239.333984 
	C105.310959,239.465378 105.319252,239.596771 105.327545,239.728165 
	C104.242744,239.813477 103.157951,239.898788 101.618851,239.982727 
z"/>
<path fill="#1B1B1B" opacity="1.000000" stroke="none" 
	d="
M269.013306,284.508514 
	C269.058868,283.108459 269.101959,282.137848 269.145050,281.167206 
	C269.331024,281.173920 269.516998,281.180634 269.702972,281.187317 
	C269.702972,289.007080 269.702972,296.826843 269.702972,304.646576 
	C269.472260,304.654694 269.241516,304.662811 269.010803,304.670898 
	C269.010803,298.093231 269.010803,291.515594 269.013306,284.508514 
z"/>
<path fill="#010101" opacity="1.000000" stroke="none" 
	d="
M235.746155,180.989014 
	C235.586502,181.093765 235.425568,181.042114 235.264648,180.990463 
	C235.424728,180.937851 235.584808,180.885239 235.746155,180.989014 
z"/>
<path fill="#010101" opacity="1.000000" stroke="none" 
	d="
M201.404007,178.736710 
	C201.557098,178.858429 201.578583,179.066895 201.600082,179.275375 
	C201.490860,179.124741 201.381622,178.974106 201.404007,178.736710 
z"/>
<path fill="#010101" opacity="1.000000" stroke="none" 
	d="
M137.402252,177.732788 
	C137.557816,177.856079 137.579926,178.067612 137.602036,178.279160 
	C137.490967,178.126450 137.379883,177.973755 137.402252,177.732788 
z"/>
</svg>